<?xml version="1.0" encoding="UTF-8"?>
<svg id="Layer_2" data-name="Layer 2" xmlns="http://www.w3.org/2000/svg" viewBox="0 0 877.86 1114.71">
  <defs>
    <style>
      .cls-1 {
        fill: #01fd02;
      }
    </style>
  </defs>
  <g id="Layer_1-2" data-name="Layer 1">
    <g>
      <path class="cls-1" d="M0,1114.71l300.33-421.75c-13.5-3.49-25.04-.47-39.12-1.07l-85.78-164.72-116.92,162.63-55.9-.02,52.19-366.46,190.12-.1,38.23,72.61L877.86,0l-255.5,299.12,162.28.86-135.68,152.58c36.89,36.11,54.38,83.71,49.46,135.89-9.36,99.36-89.49,178.63-188.47,190.36l-161.22.67-210.48,202.92L0,1114.71ZM269.23,678.01c22.32-.13,39.36-2.11,57.52,1.04l-227.27,320.28,245.16-233.98,165.51-.12c98.91-12.67,177.42-98.14,175.43-197.94-.9-45.14-20.65-84.61-55.92-113.33l125.89-141.41-162.34-.6,214.84-249.93-509.87,339.49-6.55,37.22-54.67-102.83H66.21s-48.62,341.07-48.62,341.07c11.87,1.21,21.74.72,34.52.17l111.18-156.22c6.52-9.16,1.24-21.48,7.09-31.53l98.86,188.64ZM100.06,1001.29c0-.67-.54-1.21-1.21-1.21s-1.21.54-1.21,1.21.54,1.21,1.21,1.21,1.21-.54,1.21-1.21Z"/>
      <path class="cls-1" d="M233.43,844.33l131.59-185.21-84.62-1.5-120.71-230.57-14.73,84.83-104.53,146.3,42.41-303,142.48.1,76.6,146.52,13.88-88.78,383.23-254.75-147.83,173.42c54.88,2.9,105.84.73,160.66.32l-140.4,158.27,38.6-25.34c40.24,25.68,60.33,72.09,55.35,121.52-8.27,81.99-76.49,157.41-160.24,158.41l-150.9,1.8c10.65-17.7,21.59-29.71,29.15-47.06l-149.98,144.73ZM570.89,589.73c4.44-35.34-17.2-61.72-50.27-66.46l-57.01-1.03,73.29-103.97-180.52-.09,42.18,12.98-32.29,226.33,128.93-.09c37.87-.03,69.95-30.08,75.7-67.67Z"/>
      <path class="cls-1" d="M519.81,543.17c22.46.54,34.44,21.82,31.82,42.9-3.69,29.68-30.76,52.6-61.05,52.43l-101.73-.58,28.26-200.48,82.03.32-72.95,103.17,93.62,2.24ZM473.96,451c-18.3-2-30.47-1.09-45.61-.55l-10.15,79.29,55.76-78.74ZM538.96,582.23c1.16-16.24-10.55-26.27-24.13-26.24l-101.18.24-8.95,68.26h90.8c22.25,0,41.81-19.17,43.46-42.26Z"/>
    </g>
  </g>
</svg>